<?xml version="1.0" encoding="utf-8"?>
<!-- Generator: Adobe Illustrator 16.0.0, SVG Export Plug-In . SVG Version: 6.00 Build 0)  -->
<!DOCTYPE svg PUBLIC "-//W3C//DTD SVG 1.1//EN" "http://www.w3.org/Graphics/SVG/1.1/DTD/svg11.dtd">
<svg version="1.1" id="Layer_1" xmlns="http://www.w3.org/2000/svg" xmlns:xlink="http://www.w3.org/1999/xlink" x="0px" y="0px"
	 width="368.504px" height="141.732px" viewBox="0 0 368.504 141.732" enable-background="new 0 0 368.504 141.732"
	 xml:space="preserve">
<g>
	<g>
		<g>
			<path d="M45.736,120.123c-0.996,0-1.745-0.592-2.243-1.772c1.441-3.151,2.896-6.524,4.362-10.124
				c1.469-3.6,2.88-7.283,4.24-11.052c1.357-3.768,2.507-7.451,3.448-11.051c-1.552,1.236-3.13,2.587-4.737,4.049
				c-1.606,1.463-3.129,3.15-4.571,5.063c-1.828,2.306-3.227,5.047-4.197,8.225c-0.968,3.178-1.454,6.117-1.454,8.817
				c0,3.26,0.666,5.707,1.996,7.339c0.164,0.169,0.249,0.28,0.249,0.337c-0.055,0.056-0.111,0.085-0.167,0.085
				c-0.221,0-0.483-0.085-0.791-0.253c-0.303-0.169-0.595-0.423-0.872-0.759c-1.108-1.183-1.924-2.604-2.451-4.261
				c-0.528-1.659-0.79-3.445-0.79-5.358c0-2.192,0.415-4.415,1.247-6.664c0.831-2.25,2.05-4.359,3.657-6.326
				c2.327-2.87,4.626-5.246,6.898-7.129c2.271-1.885,4.459-3.727,6.566-5.525c0.831-3.318,1.412-6.552,1.744-9.703
				c0.277-2.473,0.457-4.638,0.541-6.494c0.083-1.856,0.124-3.486,0.124-4.894c0-1.405-0.055-2.615-0.167-3.627
				c-0.111-1.012-0.221-1.94-0.333-2.783c0-0.056,0.029-0.085,0.085-0.085c0.276,0,0.858,0.337,1.745,1.012
				c0.886,0.675,1.383,1.547,1.496,2.615c0.166,1.688,0.249,3.488,0.249,5.399c0,2.25-0.125,4.612-0.374,7.086
				c-0.25,2.476-0.597,5.006-1.04,7.592c1.274-1.405,2.535-2.994,3.782-4.766s2.424-3.837,3.532-6.2
				c0.333-0.675,0.636-1.012,0.914-1.012c0.221,0,0.333,0.197,0.333,0.59c0,0.62-0.264,1.519-0.79,2.7
				c-0.527,1.18-1.15,2.39-1.871,3.626c-0.721,1.237-1.441,2.307-2.161,3.206c-0.609,0.844-1.274,1.632-1.994,2.362
				c-0.72,0.732-1.469,1.463-2.244,2.193c-0.721,3.936-1.579,7.79-2.576,11.558s-2.01,7.227-3.034,10.377
				c-1.026,3.148-1.94,5.806-2.743,7.972c-0.803,2.165-1.37,3.586-1.703,4.26c-0.666,1.237-1.33,2.109-1.995,2.615
				C46.983,119.869,46.347,120.123,45.736,120.123z M57.87,51.706c-0.666,0-1.247-0.112-1.744-0.338
				c-0.333-0.169-0.5-0.45-0.5-0.843c0-0.562,0.291-1.266,0.872-2.109c0.583-0.843,1.303-1.604,2.162-2.278
				c0.857-0.676,1.646-1.012,2.369-1.012c0.386,0,0.581,0.141,0.581,0.421c0,0.226-0.195,0.506-0.581,0.844
				c-0.61,0.62-0.971,1.35-1.081,2.194c-0.112,0.843-0.264,1.575-0.457,2.192C59.296,51.396,58.755,51.706,57.87,51.706z"/>
			<path d="M72.165,90.173c-0.555,0-1.317-0.436-2.286-1.307c-0.97-0.872-1.648-2.013-2.037-3.418
				c-0.222-0.954-0.388-2.247-0.499-3.881c-0.111-1.629-0.166-3.458-0.166-5.482c0-3.374,0.068-7.001,0.207-10.882
				s0.208-7.367,0.208-10.46c0-1.012-0.014-1.968-0.042-2.868c-0.028-0.899-0.07-1.688-0.124-2.362
				c-0.112-0.112-0.429-0.212-0.955-0.296c-0.528-0.084-1.262-0.211-2.202-0.38c0-0.112,0.428-0.379,1.287-0.8
				c0.86-0.422,2.091-0.633,3.699-0.633c1.661,0,2.756,0.352,3.283,1.054c0.525,0.704,0.79,1.309,0.79,1.814
				c0,0.113,0,0.253,0,0.421c0,0.168-0.029,0.311-0.084,0.422c-0.61,2.981-1.19,6.482-1.745,10.503
				c-0.554,4.022-0.831,8.254-0.831,12.696c0,1.068,0.013,2.012,0.042,2.826c0.026,0.815,0.042,1.532,0.042,2.151v0.76
				c0.331-3.149,0.914-6.145,1.745-8.984c0.832-2.838,1.662-5.948,2.493-9.322c0.666-2.923,1.232-5.188,1.704-6.791
				c0.471-1.602,0.968-2.728,1.496-3.375c0.526-0.645,1.148-0.97,1.87-0.97c0.998,0,1.689,0.421,2.078,1.266
				c0.387,0.843,0.636,1.997,0.747,3.458c0.111,1.464,0.222,3.137,0.333,5.02c0.111,1.885,0.388,3.895,0.832,6.032
				c0.665,3.206,1.44,5.54,2.326,7c0.886,1.465,1.634,2.194,2.244,2.194c0.72,0,1.44-0.464,2.161-1.392
				c0.721-0.929,1.414-2.011,2.078-3.248c0.665-1.236,1.26-2.32,1.786-3.248c0.527-0.928,0.957-1.392,1.29-1.392
				c0.167,0,0.25,0.141,0.25,0.422c0,0.225-0.083,0.59-0.25,1.097c-1.386,3.15-2.55,5.581-3.491,7.296
				c-0.942,1.716-2.244,2.573-3.907,2.573c-1.274,0-2.548-0.563-3.822-1.688c-0.665-0.562-1.317-1.477-1.954-2.742
				c-0.638-1.266-1.234-2.656-1.788-4.175c-0.553-1.518-1.066-2.966-1.537-4.344c-0.471-1.377-0.872-2.516-1.205-3.417
				c-0.333-0.899-0.554-1.35-0.665-1.35c-0.112,0-0.291,0.114-0.541,0.338c-0.25,0.225-0.43,0.619-0.539,1.181
				c-0.943,3.488-1.704,6.932-2.286,10.333c-0.582,3.403-1.012,6.469-1.288,9.196c-0.279,2.729-0.416,4.821-0.416,6.285
				c0,0.73,0.042,1.25,0.125,1.561c0.083,0.309,0.125,0.549,0.125,0.717C72.747,89.976,72.551,90.173,72.165,90.173z"/>
			<path d="M98.424,80.894c-0.83,0-1.759-0.126-2.784-0.38c-1.026-0.253-1.911-0.59-2.66-1.013
				c-0.749-0.421-1.121-0.829-1.121-1.223c0-0.898,0.83-1.35,2.494-1.35c0.94,0,2.047-0.196,3.323-0.59
				c1.275-0.393,2.452-0.83,3.532-1.309c1.081-0.478,1.787-0.828,2.119-1.055c-0.223-0.338-0.748-0.855-1.579-1.561
				c-0.832-0.701-1.745-1.56-2.743-2.572c-0.998-1.012-1.87-2.151-2.617-3.417c-0.75-1.265-1.124-2.657-1.124-4.176
				c0-1.574,0.416-3.051,1.248-4.429c0.83-1.377,1.869-2.643,3.117-3.796c1.245-1.152,2.52-2.165,3.823-3.037
				c1.301-0.872,2.421-1.588,3.364-2.152c0.388-0.224,0.803-0.336,1.249-0.336c0.885,0,1.729,0.309,2.533,0.928
				c0.803,0.62,1.206,1.21,1.206,1.771c0,0.057-0.057,0.197-0.167,0.422c-0.444,0.506-0.928,1.294-1.454,2.362
				c-0.527,1.068-0.984,2.18-1.371,3.332c-0.389,1.154-0.581,2.208-0.581,3.164c0,1.069-0.223,1.603-0.666,1.603
				c-0.223,0-0.389-0.224-0.5-0.674c-0.11-0.45-0.166-0.872-0.166-1.266c0-1.125,0.18-2.333,0.541-3.628
				c0.36-1.293,0.594-2.221,0.707-2.783c-0.665,0-1.566,0.436-2.701,1.307c-1.137,0.873-2.286,1.94-3.45,3.206
				c-1.165,1.266-2.147,2.531-2.951,3.797c-0.804,1.265-1.205,2.292-1.205,3.079c0,1.069,0.36,2.04,1.081,2.911
				c0.72,0.873,1.621,1.675,2.701,2.404c1.081,0.732,2.091,1.518,3.034,2.361c0.553-0.225,1.413-0.633,2.576-1.223
				c1.165-0.59,2.396-1.208,3.699-1.854c1.301-0.647,2.464-1.194,3.492-1.645c1.023-0.45,1.702-0.675,2.034-0.675
				c0.111,0,0.167,0.029,0.167,0.084c0,0.394-0.415,0.9-1.247,1.519c-0.831,0.619-1.856,1.266-3.074,1.94
				c-1.219,0.675-2.424,1.321-3.616,1.94c-1.191,0.618-2.119,1.096-2.783,1.434c0.166,0.506,0.249,1.013,0.249,1.519
				c0,1.182-0.403,2.138-1.205,2.868c-0.804,0.731-1.802,1.28-2.992,1.646C100.765,80.712,99.589,80.894,98.424,80.894z"/>
		</g>
		<g>
			<path fill="#ED1C24" d="M117.527,82.834c-1.052,0-1.774-0.338-2.161-1.012c-0.388-0.675-0.582-1.715-0.582-3.122
				c0-0.73,0.027-1.519,0.083-2.361c0.057-0.845,0.167-1.8,0.333-2.869c0.499-3.823,1.051-6.875,1.662-9.152
				c0.61-2.278,1.385-3.417,2.328-3.417c0.775,0,1.467,0.451,2.078,1.35c0.609,0.9,1.024,1.547,1.246,1.94
				c-0.388,0.731-0.901,1.913-1.538,3.543c-0.637,1.632-1.205,3.347-1.703,5.146c-0.5,1.8-0.749,3.375-0.749,4.724
				c0,1.35,0.304,2.024,0.916,2.024c0.498,0,1.065-0.28,1.703-0.843c0.635-0.563,1.248-1.182,1.829-1.856
				c0.582-0.674,0.955-1.151,1.121-1.435c1.883-2.867,3.088-5.061,3.615-6.579c0.526-1.519,1.039-2.278,1.538-2.278
				c0.221,0,0.332,0.169,0.332,0.505c0,0.226-0.042,0.464-0.125,0.717c-0.083,0.253-0.18,0.578-0.292,0.971
				c-0.331,0.9-0.858,2.124-1.578,3.668c-0.72,1.548-1.593,3.109-2.618,4.683c-1.026,1.575-2.161,2.91-3.408,4.007
				C120.311,82.286,118.967,82.834,117.527,82.834z M122.015,57.357c-0.333,0-0.68-0.069-1.04-0.21
				c-0.359-0.14-0.707-0.295-1.038-0.464c-0.224-0.169-0.333-0.393-0.333-0.675c0-0.506,0.303-1.139,0.915-1.898
				c0.609-0.758,1.384-1.419,2.327-1.982c0.941-0.562,1.855-0.843,2.743-0.843c0.497,0,0.747,0.141,0.747,0.422
				c0,0.226-0.25,0.505-0.747,0.843c-0.611,0.451-1.053,1.069-1.33,1.856c-0.278,0.789-0.554,1.476-0.832,2.067
				C123.149,57.062,122.68,57.357,122.015,57.357z"/>
			<path fill="#ED1C24" d="M132.568,91.27c-0.444,0-1.163-0.407-2.162-1.223c-0.995-0.815-1.633-1.759-1.911-2.826
				c-0.387-1.406-0.638-3.262-0.748-5.568c-0.111-2.305-0.167-4.808-0.167-7.508c0-2.867,0.028-5.806,0.083-8.814
				c0.055-3.009,0.083-5.78,0.083-8.311c0-1.236,0-2.375,0-3.417c0-1.04-0.056-1.953-0.167-2.742c-0.11-0.111-0.43-0.21-0.954-0.293
				c-0.529-0.085-1.262-0.212-2.203-0.381c0-0.112,0.429-0.379,1.288-0.801c0.859-0.422,2.091-0.633,3.699-0.633
				c1.605,0,2.659,0.31,3.157,0.929c0.5,0.619,0.748,1.152,0.748,1.603c0,0.169,0,0.337,0,0.506s-0.028,0.337-0.084,0.506
				c-0.443,2.193-0.776,4.176-0.997,5.947c-0.222,1.772-0.389,3.572-0.498,5.399c-0.112,1.828-0.195,3.951-0.25,6.37
				c0.055-0.169,0.318-1.055,0.79-2.657c0.469-1.604,1.259-4.12,2.369-7.551c0.885-2.868,1.606-4.737,2.16-5.609
				c0.554-0.871,1.025-1.336,1.414-1.392c0.109,0.056,0.415,0.168,0.913,0.337c0.5,0.169,0.998,0.436,1.498,0.802
				c0.499,0.366,0.748,0.831,0.748,1.392v0.169c-0.389,2.082-0.736,4.444-1.039,7.086c-0.305,2.645-0.457,5.203-0.457,7.678
				c0,1.574,0.069,3.036,0.207,4.386c0.139,1.35,0.401,2.446,0.79,3.289c0-0.223,0.178-0.954,0.54-2.193
				c0.36-1.235,0.789-2.656,1.288-4.259c0.5-1.603,0.969-3.134,1.414-4.598c0.442-1.461,0.775-2.558,0.997-3.289
				c0.443-1.35,0.845-2.25,1.206-2.7c0.359-0.45,0.872-0.674,1.536-0.674c0.943,0,1.623,0.577,2.038,1.729
				c0.415,1.154,0.678,2.573,0.789,4.26c0.11,1.688,0.194,3.375,0.249,5.062c0.055,1.687,0.18,3.107,0.375,4.259
				c0.194,1.152,0.595,1.729,1.206,1.729c0.718,0,1.467-0.55,2.243-1.646c0.776-1.096,1.537-2.374,2.285-3.837
				c0.748-1.461,1.425-2.741,2.037-3.838c0.609-1.097,1.08-1.645,1.413-1.645c0.166,0,0.249,0.141,0.249,0.422
				c0,0.225-0.083,0.59-0.249,1.097c-0.776,1.913-1.609,3.826-2.494,5.735c-0.887,1.913-1.802,3.516-2.743,4.809
				c-0.943,1.295-1.939,1.941-2.992,1.941c-1.33,0-2.382-0.395-3.157-1.181c-0.556-0.508-0.999-1.447-1.331-2.827
				c-0.332-1.378-0.61-2.826-0.83-4.345c-0.223-1.518-0.431-2.825-0.624-3.922c-0.195-1.097-0.403-1.645-0.624-1.645
				c-0.166,0-0.403,0.493-0.707,1.476c-0.305,0.985-0.624,2.208-0.955,3.67c-0.333,1.462-0.653,2.938-0.956,4.428
				c-0.306,1.491-0.556,2.799-0.75,3.923c-0.193,1.126-0.291,1.829-0.291,2.109c0,0.675-0.29,1.069-0.871,1.182
				c-0.582,0.113-1.318,0.168-2.203,0.168c-0.389,0-0.776-0.632-1.164-1.898c-0.388-1.265-0.735-2.895-1.04-4.893
				c-0.304-1.996-0.54-4.119-0.706-6.368c-0.167-2.25-0.249-4.331-0.249-6.244c0-0.618,0-1.193,0-1.729
				c0-0.534,0.026-1.026,0.083-1.477c-0.886,2.588-1.8,5.724-2.743,9.407c-0.943,3.683-1.412,7.663-1.412,11.937
				c0,1.743,0.083,3.373,0.25,4.893c0.167,1.519,0.443,2.7,0.83,3.543c0.056,0.112,0.084,0.253,0.084,0.422
				C132.901,91.156,132.789,91.27,132.568,91.27z"/>
			<path fill="#ED1C24" d="M177.114,81.567c-0.612,0-1.276-0.237-1.996-0.716c-0.722-0.478-1.219-0.998-1.495-1.561
				c0-1.293,0.166-3.065,0.499-5.315c0.332-2.246,0.706-4.567,1.121-6.958c0.416-2.39,0.79-4.43,1.122-6.116
				c-0.998,1.575-2.135,3.29-3.407,5.146c-1.275,1.856-2.576,3.585-3.905,5.188c-1.331,1.601-2.675,2.924-4.031,3.964
				c-1.359,1.04-2.618,1.56-3.783,1.56c-1.163,0-2.077-0.407-2.742-1.223c-0.666-0.814-0.998-1.757-0.998-2.826
				c0-0.281,0.055-0.647,0.166-1.096c0.5-2.585,1.482-5.02,2.951-7.297c1.467-2.278,3.158-4.288,5.069-6.032
				c1.912-1.743,3.809-3.123,5.692-4.134c1.885-1.013,3.492-1.519,4.821-1.519c0.998,0,1.953,0.211,2.867,0.633
				c0.916,0.421,1.787,1.111,2.618,2.066c0.167,0.169,0.25,0.367,0.25,0.591c0,0.282-0.167,0.562-0.499,0.843
				c-0.388,1.35-0.789,2.967-1.205,4.851c-0.415,1.885-0.804,3.826-1.164,5.821c-0.361,1.997-0.651,3.839-0.873,5.526
				c-0.223,1.687-0.333,2.981-0.333,3.88c0,0.619,0.083,0.927,0.25,0.927c0.443,0,1.011-0.477,1.705-1.433
				c0.692-0.957,1.37-2.053,2.036-3.29c0.666-1.236,1.259-2.333,1.787-3.29c0.525-0.956,0.844-1.435,0.956-1.435
				c0.166,0,0.249,0.226,0.249,0.676c0,0.956-0.305,2.138-0.914,3.542c-0.61,1.407-1.344,2.799-2.203,4.175
				c-0.859,1.379-1.718,2.532-2.576,3.46C178.29,81.104,177.611,81.567,177.114,81.567z M161.904,73.638
				c0.774,0,1.758-0.448,2.951-1.349c1.189-0.897,2.437-2.052,3.739-3.458c1.301-1.405,2.576-2.896,3.822-4.472
				c1.248-1.574,2.328-3.08,3.242-4.513c0.914-1.435,1.563-2.602,1.953-3.501c-1.11,0-2.383,0.408-3.822,1.223
				c-1.441,0.815-2.909,1.855-4.406,3.121c-1.495,1.266-2.88,2.644-4.154,4.134c-1.275,1.49-2.3,2.939-3.075,4.344
				c-0.777,1.407-1.164,2.615-1.164,3.627C160.99,73.357,161.293,73.638,161.904,73.638z"/>
			<path fill="#ED1C24" d="M190.826,120.123c-0.998,0-1.745-0.592-2.243-1.772c1.44-3.151,2.894-6.524,4.362-10.124
				c1.468-3.6,2.881-7.283,4.239-11.052c1.356-3.768,2.506-7.451,3.448-11.051c-1.552,1.236-3.131,2.587-4.737,4.049
				c-1.606,1.463-3.13,3.15-4.57,5.063c-1.828,2.306-3.229,5.047-4.197,8.225c-0.97,3.178-1.454,6.117-1.454,8.817
				c0,3.26,0.664,5.707,1.994,7.339c0.167,0.169,0.25,0.28,0.25,0.337c-0.056,0.056-0.112,0.085-0.166,0.085
				c-0.223,0-0.486-0.085-0.79-0.253c-0.306-0.169-0.596-0.423-0.873-0.759c-1.11-1.183-1.926-2.604-2.453-4.261
				c-0.526-1.659-0.789-3.445-0.789-5.358c0-2.192,0.416-4.415,1.248-6.664c0.831-2.25,2.049-4.359,3.658-6.326
				c2.326-2.87,4.625-5.246,6.896-7.129c2.271-1.885,4.46-3.727,6.567-5.525c0.83-3.318,1.411-6.552,1.744-9.703
				c0.276-2.473,0.456-4.638,0.539-6.494s0.126-3.486,0.126-4.894c0-0.898-0.028-1.714-0.084-2.445
				c-0.055-0.731-0.11-1.405-0.166-2.025l-0.665,0.169c-0.942,1.519-2.077,3.319-3.406,5.399c-1.331,2.081-2.772,4.121-4.322,6.116
				c-1.552,1.997-3.104,3.668-4.654,5.019c-1.552,1.351-3.021,2.024-4.405,2.024c-1.163,0-2.078-0.406-2.744-1.224
				c-0.664-0.814-0.997-1.756-0.997-2.825c0-0.28,0.055-0.647,0.167-1.097c0.499-2.585,1.481-5.019,2.952-7.297
				c1.467-2.277,3.158-4.288,5.07-6.031c1.91-1.743,3.808-3.123,5.692-4.135c1.884-1.012,3.49-1.518,4.82-1.518
				c0.997,0,1.952,0.211,2.866,0.633c0.914,0.421,1.787,1.111,2.617,2.066c0.167,0.169,0.249,0.366,0.249,0.591
				c0,0.505-0.525,0.984-1.576,1.433c0.44,0.844,0.731,1.928,0.871,3.249c0.138,1.322,0.207,2.714,0.207,4.175
				c0,2.419-0.139,4.95-0.416,7.592c-0.276,2.645-0.637,5.314-1.079,8.015c1.439-1.462,2.825-3.121,4.156-4.978
				c1.328-1.857,2.603-4.076,3.822-6.664c0.333-0.675,0.637-1.012,0.914-1.012c0.22,0,0.332,0.197,0.332,0.59
				c0,0.62-0.264,1.519-0.789,2.7c-0.527,1.18-1.15,2.39-1.869,3.626c-0.721,1.237-1.442,2.307-2.162,3.206
				c-0.722,0.899-1.482,1.787-2.286,2.657c-0.804,0.873-1.648,1.702-2.533,2.489c-0.721,3.88-1.553,7.677-2.494,11.388
				c-0.941,3.713-1.884,7.115-2.825,10.209c-0.941,3.092-1.787,5.693-2.534,7.803c-0.749,2.11-1.289,3.502-1.622,4.176
				c-0.664,1.237-1.328,2.109-1.993,2.615C192.072,119.869,191.436,120.123,190.826,120.123z M187.003,73.47
				c0.776,0,1.745-0.45,2.909-1.35c1.163-0.897,2.381-2.037,3.657-3.416c1.274-1.377,2.505-2.854,3.698-4.429
				c1.19-1.574,2.243-3.051,3.157-4.429c0.915-1.377,1.537-2.49,1.87-3.333c-1.163,0-2.425,0.409-3.781,1.224
				c-1.358,0.815-2.7,1.87-4.031,3.163c-1.328,1.295-2.576,2.644-3.739,4.049c-1.164,1.407-2.119,2.729-2.867,3.966
				s-1.233,2.193-1.455,2.867c-0.166,0.394-0.249,0.704-0.249,0.928C186.172,73.218,186.449,73.47,187.003,73.47z"/>
			<path fill="#ED1C24" d="M214.678,82.834c-1.054,0-1.774-0.338-2.16-1.012c-0.39-0.675-0.582-1.715-0.582-3.122
				c0-0.73,0.027-1.519,0.082-2.361c0.055-0.845,0.167-1.8,0.333-2.869c0.5-3.823,1.051-6.875,1.661-9.152
				c0.61-2.278,1.385-3.417,2.328-3.417c0.774,0,1.467,0.451,2.077,1.35c0.608,0.9,1.024,1.547,1.247,1.94
				c-0.388,0.731-0.901,1.913-1.537,3.543c-0.638,1.632-1.207,3.347-1.704,5.146c-0.498,1.8-0.748,3.375-0.748,4.724
				c0,1.35,0.304,2.024,0.914,2.024c0.497,0,1.066-0.28,1.704-0.843c0.636-0.563,1.247-1.182,1.827-1.856
				c0.582-0.674,0.957-1.151,1.122-1.435c1.885-2.867,3.088-5.061,3.615-6.579c0.525-1.519,1.038-2.278,1.538-2.278
				c0.22,0,0.332,0.169,0.332,0.505c0,0.226-0.042,0.464-0.124,0.717c-0.082,0.253-0.18,0.578-0.291,0.971
				c-0.333,0.9-0.859,2.124-1.579,3.668c-0.722,1.548-1.593,3.109-2.617,4.683c-1.027,1.575-2.163,2.91-3.407,4.007
				C217.462,82.286,216.115,82.834,214.678,82.834z M219.165,57.357c-0.332,0-0.679-0.069-1.038-0.21
				c-0.361-0.14-0.708-0.295-1.041-0.464c-0.221-0.169-0.331-0.393-0.331-0.675c0-0.506,0.305-1.139,0.914-1.898
				c0.609-0.758,1.385-1.419,2.327-1.982c0.942-0.562,1.855-0.843,2.742-0.843c0.498,0,0.748,0.141,0.748,0.422
				c0,0.226-0.25,0.505-0.748,0.843c-0.61,0.451-1.053,1.069-1.328,1.856c-0.28,0.789-0.556,1.476-0.832,2.067
				C220.301,57.062,219.829,57.357,219.165,57.357z"/>
			<path fill="#ED1C24" d="M232.212,90.173c-0.556,0-1.317-0.436-2.285-1.307c-0.97-0.872-1.65-2.013-2.038-3.418
				c-0.223-0.954-0.389-2.247-0.498-3.881c-0.112-1.629-0.165-3.458-0.165-5.482c0-3.374,0.067-7.001,0.205-10.882
				c0.14-3.88,0.209-7.367,0.209-10.46c0-1.012-0.014-1.968-0.041-2.868c-0.028-0.899-0.07-1.688-0.124-2.362
				c-0.112-0.112-0.431-0.212-0.955-0.296c-0.528-0.084-1.263-0.211-2.202-0.38c0-0.112,0.426-0.379,1.287-0.8
				c0.857-0.422,2.09-0.633,3.697-0.633c1.662,0,2.756,0.352,3.284,1.054c0.525,0.704,0.788,1.309,0.788,1.814
				c0,0.113,0,0.253,0,0.421c0,0.168-0.028,0.311-0.083,0.422c-0.611,2.981-1.192,6.482-1.744,10.503
				c-0.556,4.022-0.831,8.254-0.831,12.696c0,1.068,0.014,2.012,0.041,2.826c0.027,0.815,0.041,1.532,0.041,2.151v0.76
				c0.332-3.149,0.914-6.145,1.745-8.984c0.831-2.838,1.662-5.948,2.494-9.322c0.665-2.923,1.231-5.188,1.703-6.791
				c0.47-1.602,0.969-2.728,1.496-3.375c0.525-0.645,1.148-0.97,1.87-0.97c0.997,0,1.689,0.421,2.077,1.266
				c0.387,0.843,0.637,1.997,0.748,3.458c0.11,1.464,0.221,3.137,0.333,5.02c0.11,1.885,0.387,3.895,0.831,6.032
				c0.664,3.206,1.439,5.54,2.327,7c0.885,1.465,1.634,2.194,2.242,2.194c0.722,0,1.442-0.464,2.162-1.392
				c0.72-0.929,1.412-2.011,2.078-3.248c0.663-1.236,1.259-2.32,1.786-3.248c0.526-0.928,0.956-1.392,1.288-1.392
				c0.167,0,0.249,0.141,0.249,0.422c0,0.225-0.082,0.59-0.249,1.097c-1.385,3.15-2.548,5.581-3.49,7.296s-2.243,2.573-3.906,2.573
				c-1.275,0-2.548-0.563-3.823-1.688c-0.664-0.562-1.315-1.477-1.953-2.742c-0.637-1.266-1.232-2.656-1.786-4.175
				c-0.555-1.518-1.067-2.966-1.537-4.344c-0.473-1.377-0.872-2.516-1.205-3.417c-0.332-0.899-0.555-1.35-0.665-1.35
				c-0.111,0-0.291,0.114-0.541,0.338c-0.249,0.225-0.43,0.619-0.54,1.181c-0.943,3.488-1.704,6.932-2.285,10.333
				c-0.581,3.403-1.012,6.469-1.288,9.196c-0.279,2.729-0.416,4.821-0.416,6.285c0,0.73,0.043,1.25,0.126,1.561
				c0.083,0.309,0.124,0.549,0.124,0.717C232.793,89.976,232.599,90.173,232.212,90.173z"/>
			<path fill="#ED1C24" d="M272.351,81.567c-0.609,0-1.275-0.237-1.994-0.716c-0.721-0.478-1.22-0.998-1.497-1.561
				c0-1.293,0.167-3.065,0.5-5.315c0.331-2.246,0.705-4.567,1.121-6.958c0.416-2.39,0.791-4.43,1.123-6.116
				c-0.998,1.575-2.134,3.29-3.408,5.146c-1.274,1.856-2.575,3.585-3.906,5.188c-1.329,1.601-2.674,2.924-4.03,3.964
				c-1.358,1.04-2.619,1.56-3.782,1.56c-1.164,0-2.077-0.407-2.741-1.223c-0.666-0.814-0.999-1.757-0.999-2.826
				c0-0.281,0.056-0.647,0.167-1.096c0.499-2.585,1.481-5.02,2.95-7.297c1.468-2.278,3.158-4.288,5.069-6.032
				c1.912-1.743,3.81-3.123,5.693-4.134c1.883-1.013,3.49-1.519,4.82-1.519c0.997,0,1.953,0.211,2.867,0.633
				c0.915,0.421,1.786,1.111,2.617,2.066c0.168,0.169,0.251,0.367,0.251,0.591c0,0.282-0.167,0.562-0.5,0.843
				c-0.388,1.35-0.789,2.967-1.205,4.851c-0.416,1.885-0.805,3.826-1.163,5.821c-0.361,1.997-0.652,3.839-0.874,5.526
				c-0.22,1.687-0.331,2.981-0.331,3.88c0,0.619,0.082,0.927,0.25,0.927c0.443,0,1.009-0.477,1.702-1.433
				c0.693-0.957,1.372-2.053,2.038-3.29c0.665-1.236,1.259-2.333,1.785-3.29c0.527-0.956,0.844-1.435,0.955-1.435
				c0.168,0,0.251,0.226,0.251,0.676c0,0.956-0.306,2.138-0.914,3.542c-0.611,1.407-1.345,2.799-2.202,4.175
				c-0.861,1.379-1.719,2.532-2.576,3.46C273.527,81.104,272.849,81.567,272.351,81.567z M257.142,73.638
				c0.776,0,1.759-0.448,2.951-1.349c1.189-0.897,2.437-2.052,3.738-3.458c1.302-1.405,2.577-2.896,3.824-4.472
				c1.246-1.574,2.326-3.08,3.241-4.513c0.914-1.435,1.563-2.602,1.952-3.501c-1.107,0-2.383,0.408-3.822,1.223
				c-1.441,0.815-2.909,1.855-4.404,3.121c-1.496,1.266-2.882,2.644-4.156,4.134c-1.273,1.49-2.299,2.939-3.075,4.344
				c-0.777,1.407-1.163,2.615-1.163,3.627C256.228,73.357,256.532,73.638,257.142,73.638z"/>
			<path fill="#ED1C24" d="M288.639,86.209c-1.939,0-3.519-0.634-4.737-1.898c-1.22-1.265-2.147-2.911-2.783-4.935
				c-0.639-2.025-1.067-4.204-1.289-6.539c-0.223-2.332-0.332-4.54-0.332-6.621c0-1.236,0.027-2.375,0.082-3.417
				c0.056-1.041,0.111-1.926,0.168-2.658c0.11-2.137,0.304-4.485,0.581-7.044c0.276-2.559,0.609-5.188,0.997-7.888
				c-2.881,0.451-5.525,0.816-7.936,1.097c-2.411,0.281-4.418,0.421-6.026,0.421c-0.221,0-0.553-0.281-0.996-0.844
				c-0.444-0.561-0.79-1.152-1.039-1.771s-0.263-0.9-0.042-0.845c0.554,0.057,1.081,0.1,1.579,0.127
				c0.498,0.028,1.025,0.042,1.578,0.042c1.663,0,3.505-0.112,5.526-0.336c2.022-0.224,4.614-0.507,7.772-0.844
				c0.442-2.812,0.927-5.597,1.452-8.353c0.527-2.754,1.067-5.37,1.622-7.845c0.276-1.125,0.54-2.025,0.789-2.7
				c0.249-0.674,0.733-0.955,1.454-0.843c0.665,0.113,1.357,0.366,2.078,0.759c0.719,0.394,1.219,0.843,1.496,1.35
				c1.106,1.069,1.911,2.404,2.41,4.007c0.499,1.603,0.749,3.389,0.749,5.357c0,2.082-0.25,4.359-0.749,6.833
				c3.046-0.449,6.191-0.998,9.433-1.645c3.24-0.646,6.399-1.321,9.476-2.025c3.074-0.703,5.859-1.334,8.352-1.898
				c0.386-0.112,0.441-0.07,0.166,0.126c-0.279,0.198-0.665,0.409-1.164,0.633c-0.499,0.226-0.914,0.395-1.245,0.506
				c-3.492,1.238-7.48,2.446-11.969,3.628c-4.487,1.18-9.005,2.222-13.547,3.12c-0.887,3.77-2.133,7.665-3.739,11.685
				c-1.607,4.021-3.297,7.888-5.07,11.6c0,0.563-0.014,1.111-0.041,1.646c-0.028,0.535-0.043,1.083-0.043,1.645
				c0,2.756,0.153,5.215,0.458,7.381c0.305,2.165,0.817,3.923,1.538,5.271c0.498,0.958,1.066,1.618,1.704,1.982
				c0.635,0.367,1.261,0.55,1.869,0.55c0.609,0,1.191-0.112,1.745-0.338c0.554-0.225,0.97-0.395,1.246-0.507
				c0.611-0.28,1.026-0.392,1.248-0.337c0.22,0.057,0.193,0.226-0.084,0.506c-0.165,0.226-0.665,0.592-1.495,1.096
				C291.05,85.955,289.969,86.209,288.639,86.209z M283.984,62.166c1.331-3.092,2.577-6.214,3.74-9.364
				c1.164-3.149,2.105-6.187,2.827-9.112c-0.722,0.114-1.414,0.226-2.079,0.338c-0.664,0.113-1.329,0.225-1.994,0.338
				c-0.556,3.037-1.04,6.061-1.454,9.069C284.609,56.444,284.262,59.355,283.984,62.166z M287.06,41.666l1.165-0.169l2.908-0.337
				c0.275-1.292,0.482-2.53,0.624-3.711c0.137-1.181,0.206-2.306,0.206-3.375c0-2.923-0.526-5.258-1.578-7.002
				c-0.611,2.25-1.192,4.612-1.746,7.087S287.559,39.135,287.06,41.666z"/>
			<path fill="#ED1C24" d="M297.282,82.834c-1.054,0-1.774-0.338-2.163-1.012c-0.388-0.675-0.58-1.715-0.58-3.122
				c0-0.73,0.027-1.519,0.084-2.361c0.053-0.845,0.165-1.8,0.331-2.869c0.498-3.823,1.053-6.875,1.662-9.152
				c0.609-2.278,1.385-3.417,2.326-3.417c0.777,0,1.468,0.451,2.079,1.35c0.608,0.9,1.024,1.547,1.247,1.94
				c-0.39,0.731-0.902,1.913-1.539,3.543c-0.638,1.632-1.205,3.347-1.702,5.146c-0.5,1.8-0.749,3.375-0.749,4.724
				c0,1.35,0.305,2.024,0.913,2.024c0.499,0,1.067-0.28,1.706-0.843c0.636-0.563,1.244-1.182,1.826-1.856
				c0.582-0.674,0.957-1.151,1.122-1.435c1.884-2.867,3.088-5.061,3.615-6.579c0.527-1.519,1.04-2.278,1.538-2.278
				c0.221,0,0.333,0.169,0.333,0.505c0,0.226-0.041,0.464-0.125,0.717c-0.083,0.253-0.181,0.578-0.291,0.971
				c-0.332,0.9-0.859,2.124-1.58,3.668c-0.721,1.548-1.592,3.109-2.616,4.683c-1.026,1.575-2.161,2.91-3.409,4.007
				C300.066,82.286,298.721,82.834,297.282,82.834z M301.769,57.357c-0.333,0-0.68-0.069-1.039-0.21
				c-0.361-0.14-0.706-0.295-1.039-0.464c-0.221-0.169-0.331-0.393-0.331-0.675c0-0.506,0.304-1.139,0.913-1.898
				c0.609-0.758,1.385-1.419,2.327-1.982c0.941-0.562,1.856-0.843,2.743-0.843c0.498,0,0.748,0.141,0.748,0.422
				c0,0.226-0.25,0.505-0.748,0.843c-0.61,0.451-1.054,1.069-1.329,1.856c-0.278,0.789-0.555,1.476-0.833,2.067
				C302.904,57.062,302.435,57.357,301.769,57.357z"/>
			<path fill="#ED1C24" d="M315.48,82.496c-1.993,0-3.463-0.66-4.404-1.982c-0.943-1.32-1.413-2.938-1.413-4.85
				c0-2.026,0.47-4.499,1.413-7.423c0.941-2.924,1.939-5.681,2.993-8.268c-0.944,0.62-1.913,1.181-2.909,1.688
				c-0.997,0.505-1.885,0.759-2.659,0.759c-0.557,0-0.956-0.14-1.205-0.423c-0.251-0.28-0.376-0.589-0.376-0.927
				c0-0.281,0.083-0.703,0.251-1.266c0.165-0.562,0.457-1.097,0.872-1.603c0.417-0.506,0.927-0.759,1.537-0.759
				c0.222,0,0.332,0.084,0.332,0.253c0,0.057-0.013,0.1-0.041,0.127c-0.029,0.028-0.041,0.071-0.041,0.126
				c-0.056,0.113-0.083,0.225-0.083,0.338c0,0.225,0.139,0.336,0.416,0.336c0.165,0,0.373-0.027,0.623-0.083
				c0.25-0.056,0.511-0.169,0.788-0.338c0.554-0.28,1.191-0.632,1.913-1.054c0.719-0.423,1.522-0.857,2.409-1.308l1.248-2.531
				c0.33-0.618,0.718-1.054,1.162-1.307c0.443-0.254,0.858-0.38,1.247-0.38c0.608,0,1.149,0.099,1.62,0.295
				c0.472,0.198,0.899,0.437,1.288,0.717c0.609-0.28,1.26-0.548,1.953-0.801c0.693-0.253,1.372-0.436,2.035-0.548
				c2.104-0.787,4.294-1.419,6.566-1.898c2.271-0.477,4.515-0.717,6.732-0.717c1.217,0,2.464,0.168,3.74,0.506
				c1.273,0.338,1.911,0.873,1.911,1.603c0,0.226-0.223,0.338-0.666,0.338c-0.886,0-1.899-0.112-3.033-0.338
				c-1.136-0.223-2.257-0.337-3.366-0.337c-1.385,0-2.715,0.071-3.988,0.211c-1.275,0.141-2.467,0.352-3.573,0.633
				c0.884,0.394,1.619,1.069,2.202,2.024c0.582,0.957,0.872,2.166,0.872,3.628c0,1.575-0.374,3.458-1.123,5.651
				c-0.748,2.193-1.743,4.444-2.991,6.749c-1.246,2.308-2.673,4.458-4.279,6.454c-1.608,1.997-3.271,3.614-4.988,4.852
				C318.75,81.878,317.087,82.496,315.48,82.496z M316.396,80.726c1.163,0,2.369-0.535,3.616-1.603
				c1.244-1.068,2.477-2.419,3.696-4.051c1.218-1.63,2.3-3.316,3.241-5.06c0.444-0.788,0.956-1.856,1.538-3.206
				c0.58-1.35,1.08-2.785,1.495-4.303c0.417-1.519,0.624-2.896,0.624-4.134c0-1.125-0.236-2.067-0.707-2.826
				c-0.471-0.76-1.345-1.14-2.617-1.14c-0.609,0-1.387,0.169-2.326,0.507c-0.943,0.337-1.94,0.731-2.992,1.181
				c-0.223,0.225-0.43,0.464-0.624,0.716c-0.193,0.253-0.347,0.521-0.457,0.801c-1.054,1.97-2.107,4.148-3.158,6.539
				c-1.054,2.391-1.925,4.711-2.617,6.959c-0.693,2.249-1.038,4.217-1.038,5.905C314.069,79.488,314.843,80.726,316.396,80.726z"/>
			<path fill="#ED1C24" d="M344.485,90.173c-0.555,0-1.317-0.436-2.285-1.307c-0.971-0.872-1.648-2.013-2.035-3.418
				c-0.225-0.954-0.39-2.247-0.5-3.881c-0.112-1.629-0.166-3.458-0.166-5.482c0-3.374,0.067-7.001,0.208-10.882
				c0.137-3.88,0.208-7.367,0.208-10.46c0-1.012-0.016-1.968-0.041-2.868c-0.03-0.899-0.072-1.688-0.125-2.362
				c-0.113-0.112-0.43-0.212-0.957-0.296c-0.526-0.084-1.261-0.211-2.201-0.38c0-0.112,0.427-0.379,1.287-0.8
				c0.858-0.422,2.091-0.633,3.697-0.633c1.663,0,2.758,0.352,3.283,1.054c0.526,0.704,0.79,1.309,0.79,1.814
				c0,0.113,0,0.253,0,0.421c0,0.168-0.028,0.311-0.083,0.422c-0.61,2.981-1.191,6.482-1.745,10.503
				c-0.555,4.022-0.831,8.254-0.831,12.696c0,1.068,0.014,2.012,0.043,2.826c0.025,0.815,0.041,1.532,0.041,2.151v0.76
				c0.331-3.149,0.913-6.145,1.745-8.984c0.83-2.838,1.66-5.948,2.491-9.322c0.666-2.923,1.232-5.188,1.704-6.791
				c0.472-1.602,0.97-2.728,1.497-3.375c0.526-0.645,1.149-0.97,1.869-0.97c0.997,0,1.69,0.421,2.079,1.266
				c0.387,0.843,0.635,1.997,0.746,3.458c0.111,1.464,0.222,3.137,0.333,5.02c0.111,1.885,0.388,3.895,0.832,6.032
				c0.665,3.206,1.438,5.54,2.326,7c0.886,1.465,1.634,2.194,2.244,2.194c0.72,0,1.441-0.464,2.162-1.392
				c0.718-0.929,1.411-2.011,2.075-3.248c0.666-1.236,1.261-2.32,1.787-3.248c0.526-0.928,0.957-1.392,1.289-1.392
				c0.167,0,0.25,0.141,0.25,0.422c0,0.225-0.083,0.59-0.25,1.097c-1.386,3.15-2.548,5.581-3.49,7.296
				c-0.943,1.716-2.244,2.573-3.907,2.573c-1.274,0-2.548-0.563-3.821-1.688c-0.665-0.562-1.316-1.477-1.954-2.742
				s-1.234-2.656-1.786-4.175c-0.556-1.518-1.067-2.966-1.536-4.344c-0.475-1.377-0.874-2.516-1.207-3.417
				c-0.333-0.899-0.555-1.35-0.665-1.35s-0.291,0.114-0.54,0.338c-0.249,0.225-0.431,0.619-0.539,1.181
				c-0.944,3.488-1.705,6.932-2.287,10.333c-0.58,3.403-1.012,6.469-1.286,9.196c-0.279,2.729-0.416,4.821-0.416,6.285
				c0,0.73,0.04,1.25,0.124,1.561c0.084,0.309,0.125,0.549,0.125,0.717C345.067,89.976,344.872,90.173,344.485,90.173z"/>
		</g>
	</g>
	<g>
		<path d="M131.958,41.73c0.192,0.539,0.778,0.043,0.938,0.065C132.324,40.998,131.794,41.836,131.958,41.73z"/>
		<path d="M126.091,34.365l0.339-0.025c0,0-0.324-0.196-0.675-0.368c-0.345-0.174-0.69-0.35-0.69-0.35s0.257,0.184,0.517,0.368
			C125.843,34.173,126.091,34.366,126.091,34.365z"/>
		<path d="M121.096,27.414c-0.236,0.728,0.275,1.294,0.926,1.875c0.658,0.574,1.45,1.174,1.677,1.952l-0.093,0.378l1.219-0.028
			C123.689,30.09,121.616,28.67,121.096,27.414z"/>
		<path d="M120.089,22.069c-0.162,0.56-0.997-0.462,0.628,0.925c-0.031-0.116-0.029-0.161-0.041-0.234
			C120.542,22.623,120.365,22.427,120.089,22.069z"/>
		<path d="M120.676,22.76C121.331,23.431,120.568,22.021,120.676,22.76L120.676,22.76z"/>
		<path d="M117.483,19.855l1.194,0.534c0.022-0.388-0.729-1.202-0.287-1.072C117.301,18.608,117.297,19.01,117.483,19.855z"/>
		<path d="M116.013,19.736l0.582,0.297C116.6,19.868,116.507,19.719,116.013,19.736z"/>
		<path d="M117.833,20.674l-1.239-0.64c-0.014,0.273-0.285,0.585,0.54,0.321C116.797,20.553,117.235,20.47,117.833,20.674z"/>
		<path d="M118.243,21.338c0.292,0.679,0.733,1.464-0.387,0.874C119.523,23.798,119.972,22.919,118.243,21.338z"/>
		<path d="M119.821,27.924l0.253,0.924l0.797,0.321C120.476,29.01,120.093,27.625,119.821,27.924z"/>
		<path d="M112.156,14.278c-0.223,0.168-0.121,0.841-0.265,1.173l0.887,0.331C112.537,15.339,111.962,14.639,112.156,14.278z"/>
		<path d="M111.892,15.452c0,0-0.329-0.122-0.659-0.244c-0.323-0.129-0.672-0.221-0.672-0.221
			C111.478,15.753,111.76,15.747,111.892,15.452z"/>
		<polygon points="114.903,20.635 117.139,21.424 114.594,20.358 		"/>
		<path d="M107.959,11.176l0.981-0.072c0,0-0.415-0.003-0.828-0.007c-0.405-0.009-0.831,0.016-0.831,0.016s0.174,0.012,0.344,0.024
			C107.792,11.156,107.959,11.176,107.959,11.176z"/>
		<path d="M104.971,9.435c0.756-0.147-0.229-1.178,0.454-1.135c-0.863-0.417-1.764-0.471-2.606-0.432
			C103.618,8.006,104.283,8.518,104.971,9.435z"/>
		<path d="M101.473,7.827c0.395,0.066,0.849,0.05,1.346,0.041C102.4,7.785,101.963,7.751,101.473,7.827z"/>
		<path d="M108.791,13.544c0.01-0.196,0.093-0.667-0.423-1.261l0.001,0.943C108.497,13.323,108.642,13.433,108.791,13.544z"/>
		<path d="M108.37,13.258l-0.001-0.032c-0.454-0.351-0.767-0.594-0.902-0.698C107.581,12.62,107.852,12.839,108.37,13.258z"/>
		<path d="M108.896,13.625c-0.039-0.03-0.066-0.052-0.105-0.081C108.789,13.636,108.799,13.675,108.896,13.625z"/>
		<path d="M112.78,17.815c-0.875-0.172-2.378-0.828-1.601,0.667C111.931,18.427,111.478,17.566,112.78,17.815z"/>
		<path d="M108.874,14.787l1.034,0.962c0.099-0.178,0.067-0.565,0.507-0.509L108.874,14.787z"/>
		<polygon points="108.176,14.586 108.874,14.787 108.488,14.43 		"/>
		<path d="M103.291,9.628c-0.677-0.051-1.302-0.3-1.992-0.613c0.648,0.509,1.357,0.954,2.022,1.389
			C103.536,10.253,104.051,10.063,103.291,9.628z"/>
		<path d="M105.763,11.401c-0.044-0.012-0.098-0.025-0.139-0.035C105.662,11.466,105.708,11.519,105.763,11.401z"/>
		<path d="M94.57,5.826c0.019,0.06,0.038,0.116,0.058,0.178c0.024-0.038,0.049-0.074,0.075-0.113L94.57,5.826z"/>
		<path d="M103.366,10.599c0.443,0.446,0.845,0.474,1.262,0.452c-0.429-0.171-0.864-0.381-1.307-0.647
			C103.224,10.473,103.182,10.531,103.366,10.599z"/>
		<path d="M99.443,7.173c0.217,0.293,0.479,0.583,0.76,0.871C100.036,7.684,99.632,7.045,99.443,7.173z"/>
		<path d="M105.56,11.077c0.031,0.006,0.062,0.009,0.094,0.019C105.571,10.85,105.549,10.932,105.56,11.077z"/>
		<path d="M105.56,11.077c-0.328-0.071-0.635-0.04-0.932-0.026c0.347,0.144,0.682,0.254,0.996,0.315
			C105.587,11.28,105.567,11.17,105.56,11.077z"/>
		<path d="M90.805,9.662c0.167-0.319,0.66-0.509,1.237-0.476c0.575,0.04,1.208,0.37,1.663,0.974
			c1.372,0.014,1.541-2.464,0.924-4.157c-0.156,0.284-0.254,0.511-1.688,0.409c0.336,0.508,2.457,2.036,1.166,2.166
			c-1.767-0.374-1.247-0.814-1.943-1.458c0.383,1.074-2.572,0.469-2.612,1.837l1.589,0.068C91.096,9.225,90.469,9.349,90.805,9.662z
			"/>
		<path d="M97.042,7.129l0.564,0.149c-0.551-0.375-0.865-0.821-1.454-1.684c-1.023-0.065-1.301,0.104-1.45,0.297l2.564,1.219
			L97.042,7.129z"/>
		<path d="M99.919,8.426c-0.747,0.482-2.087,0.157-1.711,1.294c1.48,0.712,1.307-0.046,2.342,0.116
			c-2.474-1.076,0.886-0.024-0.651-1.321c0.534,0.13,0.98,0.317,1.399,0.5c-0.393-0.312-0.76-0.636-1.095-0.971
			c0.013,0.028,0.022,0.048,0.035,0.072l0.013,0.003l-0.009,0.01c0.063,0.142,0.07,0.211-0.023,0.1
			c-0.012,0.005-0.044-0.007-0.058-0.012c-0.065,0.087-0.151,0.148-0.239,0.204c-0.631-0.508-0.022-0.238,0.239-0.204
			c0.024-0.03,0.059-0.052,0.081-0.087l-0.004-0.013c0,0-0.656-0.222-1.311-0.442c-0.645-0.238-1.321-0.396-1.321-0.396
			C98.1,7.588,98.743,7.913,99.919,8.426z"/>
		<path d="M109.078,18.892c-0.019-0.105,0.017-0.147,0.047-0.195C108.938,18.665,108.849,18.676,109.078,18.892z"/>
		<path d="M108.528,17.853c0.221,0.021,0.531-0.128,0.957,0.333c0.27,0.527-0.228,0.292-0.36,0.511
			c0.406,0.072,1.342,0.397,0.671-0.649l-0.207-0.035c-0.635-0.897-1.228-2.43-1.005-2.425
			C108.434,16.335,108.368,16.898,108.528,17.853z"/>
		<path d="M104.324,13.121l-2.072-0.833l0.614,1.165l0.157-0.375C104.001,13.867,104.029,13.303,104.324,13.121z"/>
		<path d="M94.471,5.365l0.58-0.641c0,0-0.411,0.137-0.821,0.274c-0.405,0.129-0.819,0.3-0.819,0.3c0-0.001,0.271-0.006,0.534,0.022
			C94.207,5.343,94.471,5.365,94.471,5.365z"/>
		<polygon points="91.649,4.43 91.986,3.793 91.102,3.939 		"/>
		<path d="M14.903,100.527c0,0,0.11,0.108,0.22,0.217c0.117,0.105,0.231,0.211,0.231,0.211
			C15.157,100.744,15.026,100.61,14.903,100.527z"/>
		<path d="M13.084,96.64l-0.358,0.046C12.982,96.789,13.143,96.805,13.084,96.64z"/>
		<path d="M23.42,17.601c-1.159,0.138-2.684,0.116-2.063,0.63l0.744,0.378C22.524,18.051,22.978,17.768,23.42,17.601z"/>
		<path d="M4.372,61.554c0.086-0.076,0.177-0.155,0.265-0.232c-0.222-0.263-0.432-0.511-0.621-0.732
			C4.125,60.881,4.229,61.208,4.372,61.554z"/>
		<path d="M7.446,62.642l-0.637,1.091C7.013,63.493,7.225,63.141,7.446,62.642z"/>
		<path d="M29.948,118.064l1.008-0.165C30.166,117.21,30.257,117.82,29.948,118.064z"/>
		<path d="M61.79,1.124c-0.865-0.21-1.546-0.243-2.137-0.208C60.722,1.233,61.587,1.792,61.79,1.124z"/>
		<path d="M6.839,102.731c0.31,0.304,0.529,0.387,0.676,0.299C7.207,102.715,6.969,102.567,6.839,102.731z"/>
		<path d="M57.241,1.276c0.16,0.05,0.308,0.064,0.468,0.103c0.584-0.25,1.191-0.406,1.944-0.462
			C58.868,0.683,57.968,0.577,57.241,1.276z"/>
		<path d="M106.878,119.492c0.072-0.008,0.139-0.041,0.205-0.047C107.031,119.349,106.968,119.406,106.878,119.492z"/>
		<path d="M129.204,104.273c-0.086,0.265-0.293,0.662-0.479,1.043C128.865,105.16,129.022,104.851,129.204,104.273z"/>
		<path d="M80.164,1.109C80.794,1.174,80.278,1.042,80.164,1.109L80.164,1.109z"/>
		<path d="M82.56,4.705c-0.144,0.062-0.261,0.153-0.312,0.329C82.334,4.856,82.44,4.756,82.56,4.705z"/>
		<path d="M52.306,7.294c-0.017,0.003-0.03,0.007-0.049,0.011C52.463,7.406,52.427,7.386,52.306,7.294z"/>
		<path d="M81.038,1.634c-0.215-0.138-0.47-0.268-0.752-0.378C80.404,1.34,80.632,1.461,81.038,1.634z"/>
		<path d="M80.975,1.247c0.21,0.07,0.375,0.125,0.53,0.177C81.607,1.311,81.551,1.217,80.975,1.247z"/>
		<path d="M79.294,0.987c0.356,0.054,0.682,0.152,0.991,0.269c-0.114-0.077-0.158-0.129-0.121-0.147
			C79.981,1.083,79.723,1.047,79.294,0.987z"/>
		<path d="M64.911,135.069c0.037,0.026,0.079,0.046,0.117,0.083C65.616,134.872,65.362,134.905,64.911,135.069z"/>
		<path d="M18.834,34.522c0.009-0.027,0-0.05,0.007-0.076c-0.023,0.017-0.05,0.037-0.07,0.052L18.834,34.522z"/>
		<path d="M18.152,36.5c-0.301-1.246,0.083-1.59,0.62-2.001l-2.192-0.758c0,0,0.388,0.696,0.777,1.392
			C17.754,35.817,18.152,36.5,18.152,36.5z"/>
		<path d="M20.606,109.032c0,0-0.077-0.381-0.153-0.763c-0.08-0.374-0.131-0.77-0.131-0.77c1.9,0.648,2.319,1.785,2.306,0.186
			c-1.012,0.685-1.883-0.331-2.677-1.401c-0.837-1.038-1.567-2.149-2.641-1.571l-0.063-1.053c0.12,0.234,0.263,0.193,0.381,0.425
			c0.027-2.105-2.17-0.21-3.054-2.433c-0.248-0.801-0.163-1.486,0.329-1.125L13.56,99.19c-0.197-0.494,0.237-0.563,0.432-0.079
			c0,0-0.088-0.146-0.221-0.369c-0.133-0.223-0.313-0.518-0.468-0.826c-0.326-0.61-0.649-1.221-0.649-1.221l0.073-0.01
			c-0.501-0.202-1.423-0.785-1.798-1.111c0.061-0.799,0.365,0.235,0.576-0.055l-1.104-1.225c0.354-0.815,1.383,0.153,1.68,1.168
			c0.853-1.136,0.605-1.355,0.158-1.738c-0.44-0.376-1.112-0.919-0.912-2.608l0.739,1.248c1.012-1.34,0.155-2.194,0.532-3.955
			c-0.38,0.47-1.05,3.692-2.152,2.336c0.019-0.502-0.093-1.103-0.788-1.833c0.82-0.254,0.386-1.026,0.043-2.063l1.119-0.218
			c-0.585-1.041-1.117-0.818-1.771-1.377c-0.188-1.313,0.617-1.755,1.299-2.198c-0.18-2.072-1.134,1.693-1.773-0.705
			c0.1-1.796-0.479-2.923-1.399-4.965c0.299-1.271,0.708,0.149,0.998-0.323L7.19,76.052c0.001-0.271,0.285-0.204,0.428-0.171
			c-0.417-0.896-1.145,0.01-1.548-1.447c-0.628-0.167-0.191-0.961,0.222-1.902c0.389-0.947,0.833-2.028,0.152-2.956
			c0.333-0.436,0.689,0.235,1.132,0.109c-0.887-2.502-0.575-2.124-1.694-4.286c0,0,0.207-0.425,0.447-0.84
			c0.241-0.414,0.48-0.827,0.48-0.827c-1.008,1.18-1.805-0.559-2.438-2.179c-0.466,0.41-0.873,0.768-1.078,1.02
			c0,0-0.075-0.624-0.15-1.249c-0.072-0.626-0.104-1.253-0.104-1.253c0.235-0.259,0.576,0.052,0.976,0.518
			c-0.063-0.177-0.127-0.346-0.19-0.48c0.563-0.782,1.128-0.215,1.649,0.483c-0.282,0.245-0.563,0.49-0.838,0.729
			c0.608,0.69,1.299,1.327,1.972,1.298c-0.111-0.167-0.188-0.469-0.21-0.795c0.166,0.176,0.32,0.294,0.44,0.244
			c0.134-0.06-0.103-0.336-0.317-0.753l1.34-0.309l-0.474-0.207c0,0,0.324-0.699,0.648-1.397c0.308-0.698,0.679-1.371,0.679-1.371
			c-0.778-2.321-2.183-4.691-1.533-8.238c0.601,1.136,1.376,0.67,2.401,1.08c-0.694,0.252-0.805,0.924-0.795,1.729
			c0.022,0.813,0.132,1.741-0.219,2.554c0.366-0.851,0.814-0.513,0.93-0.244c0,0-0.045-0.821-0.09-1.643
			c-0.061-0.833-0.042-1.657-0.042-1.657c0.833,0.35,0.852-0.417,1.458-1.061c-0.927-0.003-1.048-0.665-0.885-1.489
			c0.167-0.822,0.565-1.812,0.548-2.521c0.578,0.16,1.029,0.684,0.335,2.073c0.933-0.55,0.643-1.249,0.34-1.983
			c-0.281-0.719-0.573-1.47,0.292-2.012c-0.143,0.356-0.311,0.509-0.095,0.772c-0.062-0.518,0.229-1.24,0.565-1.739
			c0.355-0.49,0.759-0.752,0.875-0.408l-0.161,0.344c0.333-0.539,0.714-1.237,1.083-1.996c0.361-0.764,0.787-1.548,1.094-2.328
			c0.618-1.555,1.063-2.933,0.521-3.53c0.173,0.088,1.341,1.295,1.518,1.588c0,0-0.116-0.414-0.289-1.033
			c-0.181-0.63-0.381-1.458-0.565-2.299c-0.188-0.843-0.365-1.703-0.491-2.355c-0.132-0.654-0.2-1.088-0.202-1.088
			c0.391,0.563,1.449,0.993,2.31,1.566c0.867,0.576,1.513,1.263,1.224,2.333c0.478-0.387,1.096-0.823,1.505-2.097
			c-0.39,0.198-2.105-0.361-1.85-0.885c2.092-0.312,1.247-0.401,3.416-1.025c-0.606,0.281-1.712-1.573-1.01-2.296
			c0.127,0.323,1.551,1.292,1.481,1.702c0,0,0.003-0.796,0.046-1.584c0.055-0.791,0.109-1.582,0.109-1.582
			c-0.16,0.698,1.159,1.254,1.924,1.267c-0.225-0.047,0.135-0.417,0.586-0.849c0.466-0.418,1.038-0.88,1.196-1.176l-1.049,0.367
			c2.129-1.658,0.035-3.955,2.225-5.739c0.009,0.56,1.003,2.493,2.213,1.828c-0.079-0.596-0.305-2.001-0.288-3.565
			c0.005-1.571,0.335-3.213,1.156-4.312l0.73,0.204l1.292-1.644c-0.1,1.011-0.453,2.615-0.748,4.304
			c-0.317,1.666-0.65,3.302-0.924,4.362c1.075-0.244,0.619,0.354,1.791-0.57c0.748,0.146-0.17,1.14-0.473,1.454
			c0,0,0.181-0.117,0.451-0.29c0.28-0.162,0.651-0.376,1.022-0.59c0.742-0.426,1.482-0.852,1.482-0.852
			c-0.811-0.923,1.545-2.449,0.914-3.24c0,0-0.631,0.783-1.262,1.565c-0.317,0.382-0.609,0.794-0.828,1.097
			c-0.221,0.303-0.367,0.504-0.367,0.504c-0.407-0.447-0.455-1.467-0.101-2.559c0.374-1.048,1.156-2.179,2.306-2.765
			c0.804,0.091,0.672,2.087,0.939,2.41c0.053-0.524,1.641-1.879,1.98-1.739l-0.595,1.094c0.708-0.142,0.984-0.791,1.37-1.347
			c0.383-0.551,0.856-1.05,1.847-0.917c0.543-0.219,2.19,0.674,1.978-0.018c-1.398-0.876-3.432-4.631-3.243-5.857
			c0.25-0.018,3.504-0.172,4.397,0.256c1.297,0.644-0.413,2.939,0.707,3.49c-0.092-0.318,0.247-0.892,0.407-1.097
			c0.668,0.036,0.137,1.047,1.302,0.417c-0.231-1.266,2.574-0.791,0.229-1.201c1.12-0.754,1.394-0.212,2.819-0.758
			c-0.718-0.62,0.548-2.971,1.794-3.692c0.003,0.325,0.398,0.633,0.584,0.771c1.352-0.276,2.42-0.347,3.451-0.427
			c1.045-0.03,2.053-0.077,3.304-0.286c0.279,0.264,1.53,0.465,1.088,1.054c0.326-0.262,0.603-0.716,1.373-0.845
			c1.596,0.863-1.688,0.384-0.41,1.505c0.004-0.36,0.466-0.668,1.062-0.96c0.598-0.27,1.333-0.498,1.869-0.765
			c-0.208-0.536-0.859-0.539-1.585-0.342c-0.726,0.206-1.512,0.666-2.032,0.95c-0.213-1.501,1.549-3.376,4.299-4.25
			c2.189-0.491,0.995,0.94,1.367,0.702c2.049,0.074,2.916-0.611,3.726-1.12c0.803-0.53,1.553-0.959,3.265-0.344
			c1.309,1.02-0.066,1.925,0.192,2.633c-1.762,0.299-2.661-0.715-3.865-0.722l1.458,0.513c-0.569,0.307-1.729,0.485-2.363,0.213
			c0.558,0.424,2.24,0.552,4.173,0.651c0.969,0.019,1.986,0.192,2.954,0.354c0.966,0.171,1.877,0.382,2.609,0.666
			c0.583-0.241,1.567-0.379,1.189-0.853l-0.987-0.044c-0.792-0.924,2.003-0.739,0.817-1.319c1.397-0.281,3.092-0.88,4.879-0.029
			l0.097,1.168c0.018-0.163-0.245-0.403-0.587-0.579c-0.347-0.157-0.776-0.234-1.072-0.121c0.913-0.378,2.47,2.142,3.66,0.955
			l-1.105-1.089c0.726-0.092,1.581-0.309,2.46-0.402c0.438-0.046,0.884-0.064,1.315-0.015c0.426,0.074,0.84,0.208,1.224,0.435
			c-0.428-1.29-0.401-0.031-1.228-1.619c0.601,1.802-4.32-1.231-3.068,0.831c-0.428-0.881-0.93-1.176-1.482-1.458
			c-0.558-0.267-1.176-0.47-1.881-1.254c-0.018,0.368,0.451,0.796-0.968,0.342c-0.084,0.093-0.262,0.197-0.374,0.256
			c-0.042-0.021-0.056-0.027-0.093-0.045c0.026,0.021,0.046,0.036,0.072,0.058c-0.072,0.041-0.079,0.052,0.028,0.02
			c0.316,0.222,0.559,0.463,0.634,0.684c-0.867,0.696-3.104,0.198-3.935,0.598c-0.824-0.269,0.409-0.375-0.003-0.813l-1.229,0.511
			c-0.013-0.815-2.146-1.594-0.059-1.835l-1.838-0.243c-1.044-0.594-2.562-0.763-3.5-0.479c-0.878-0.208-2.224,0.814-1.454,0.209
			c0,0-0.182,0.024-0.455,0.062c-0.271,0.035-0.634,0.084-0.997,0.164c-0.72,0.144-1.44,0.287-1.44,0.287L66.83,0.654
			c-1.432-0.043-2.88,0.419-4.371,0.703c-0.748,0.125-1.502,0.281-2.287,0.306c-0.783,0.038-1.601-0.071-2.463-0.284
			c-0.917,0.383-1.849,0.77-3.466,0.881l-0.452-0.611c-0.581,0.26-1.53,0.303-2.385,0.388c-0.85,0.101-1.596,0.276-1.757,0.696
			c-0.898-0.728-2.417-0.399-3.932,0.247c-1.539,0.587-3.035,1.552-4.129,1.797l0.269,0.874c-0.711,0.256-1.353,0.636-2.025,1.05
			c-0.67,0.421-1.36,0.897-2.096,1.503l0.456,0.671c-0.551,0.67-1.527,0.978-2.612,1.354c-1.074,0.395-2.333,0.735-3.363,1.474
			c-0.016-0.353,0.56-0.648,1.051-0.707c-0.886-0.017-1.604,0.314-2.261,0.751c-0.649,0.446-1.223,1.02-1.737,1.651
			c-0.523,0.619-1.023,1.24-1.579,1.74c-0.546,0.513-1.129,0.928-1.87,1.092c-0.351,0.659-0.805,0.873-1.292,1.035
			c0.047-0.042,0.081-0.092,0.101-0.144c-0.059,0.039-0.137,0.106-0.217,0.178c-0.314,0.092-0.652,0.175-0.99,0.3
			c0.343-0.041,0.652-0.099,0.878-0.199c-0.385,0.361-0.924,0.965-1.376,1.632l-0.821-0.424c-0.041,0.05-0.081,0.083-0.12,0.139
			c-0.785,0.291-0.176,0.73,0.547,0.925c-0.188,0.377-0.331,0.753-0.388,1.098c-1.39-0.573-1.15,1.726-2.759,1.3
			c0.075,0.447-0.5,1.258-0.987,2.121c-0.488,0.863-0.827,1.827-0.397,2.475c-0.164-0.11-0.381-0.002-0.123-0.324
			c-0.675,0.541-1.392,1.064-1.518,1.954l-1.069-0.403l0.005,2.392c-1.204,0.493-1.777,0.686-1.796-0.765
			c-0.28,1.523-0.494,2.042-0.686,2.527c-0.197,0.476-0.358,0.926-0.433,2.258l-0.529-0.483c-0.419,0.729-0.344,2.327-1.066,2.467
			c-0.515,0.229-1.068,0.842-1.663,1.689c-0.587,0.851-1.143,1.972-1.771,3.159c-1.166,2.423-2.361,5.216-3.698,7.321
			c2.259-0.214-1.606,1.842-0.115,2.534c-0.544,0.123-0.993,0.702-1.188-0.186c-0.107,1.273-0.546,2.119-0.852,2.913
			c-0.27,0.8-0.416,1.544,0.056,2.528c-0.545,0.172-0.583-0.68-0.923-0.496c0.058,0.223,0.24,0.871-0.103,1.064
			c-0.342,0.19-0.321-0.444-0.44-0.882c-0.469,2.56,1.041,3.092,2.382,3.512c-0.891,1.12-0.886,1.784-0.068,2.806
			c-0.514,0.368-1.087,1.045-1.058-0.524c-0.077,0.431-0.446,1.736-0.573,2.976c-0.113,1.24-0.068,2.393,0.496,2.469
			c-0.321,0.255-0.151,1.213-0.02,1.446c-0.099,1.949-0.268,2.124-0.096,4.041l0.172-0.533c1.396,0.729,0.324,1.572,0.568,3.104
			l-0.143-0.035c-0.362,1.789-0.214,2.171-0.086,2.533c0.123,0.368,0.242,0.715-0.094,2.521l0.821-0.297
			c0.932,0.043,0.743,0.825,0.476,1.854c-0.238,1.021-0.572,2.311-0.052,3.238l0.35-0.813c0.389,0.48-0.054,1.345-0.589,2.268
			c-0.537,0.919-1.175,1.9-1.153,2.488c-0.094,0.282-0.342-0.319-0.531-0.633c-0.299,3.198,1.168,0.104,1.998,2.163
			c-0.468,0.566-1.615-0.088-1.313,1.406c-0.147,0.441,0.676,1.342,1.453,2.395c0.755,1.066,1.584,2.233,1.415,3.407
			c0.266-0.599,0.54-1.177,1.229-0.361c0.341,0.699,0.377,1.826,0.55,2.897c0.158,1.073,0.511,2.059,1.489,2.35
			c-0.021,0.234-0.097,0.357-0.195,0.419c0.839,0.917,2.392,3.121,3.42,3.318c-1.005,1.242,0.314,2.641,1.555,3.844
			c1.299,1.173,2.499,2.185,1.432,2.992c0,0,0.589,0.703,1.179,1.407c0.296,0.35,0.59,0.699,0.813,0.962
			c0.233,0.253,0.387,0.422,0.387,0.422l-0.273,0.107c1.384,1.915,2.418,2.103,3.458,2.23c0.231,0.517-0.22,0.411-0.354,0.477
			c0.483,0.715,0.867,1.266,1.22,1.702c0.367,0.419,0.697,0.73,1.054,0.985c0.718,0.505,1.525,0.817,3.039,1.22l-0.356,0.866
			c0.463,0.051,1.129,1.154,2.188,2.327c1.019,1.219,2.444,2.5,4.093,3.045c-0.084,0.065-0.235,0.168-0.522,0.115
			c1.844,0.635,3.399,2.37,4.962,3.643c1.538,1.298,3.06,2.086,4.352,0.955l2.556,0.297c-2.749-1.539,0.99-1.094,0.041-2.121
			c0.587,0.16,1.191,0.718,1.492,1.157c0.303,0.434,0.281,0.786-0.449,0.58l-0.15-0.248c-1.182,1.372,3.38,2.021,2.916,3.054
			c2.961,1.018,5.865,2.101,8.811,2.975c2.942,0.854,5.908,1.581,8.869,1.826l-0.567-1.365l2.021,0.232
			c0.514,0.347,0.669,1.083-0.798,0.918c0.36,0.397,0.991,0.303,1.529,0.037c0.538-0.271,0.98-0.675,1.006-0.816
			c2.848,0.606-1.166,1.507-0.296,1.559l1.212-0.065l-0.268-0.161c0.987-0.536,1.073-1.025,2.822-1.047
			c1.115,0.222,0.59,0.791,1.031,0.824c0,0.094,0.152,0.133,0.68,0.012l2.613,0.002l-1.107-0.99c1.107-0.518,2.403-0.171,1.14-1.188
			c0.918,0.786,3.341,0.729,5.628,0.373c2.274-0.456,4.438-0.992,5.014-0.89c1.358-1.181,2.864-1.539,4.743-2.043
			c-0.522-0.041-1.129-1.06,0.456-1.484c0.096,1.246,0.895,1.232,1.914,1.049c1.013-0.197,2.251-0.498,3.195-0.017
			c-1.549-0.556,4.297-2.26,1.872-2.949c1.353-0.401,0.453,0.782,1.671,0.851c1.304-1.189,2.975-1.961,4.81-2.712
			c0.882-0.435,1.799-0.869,2.708-1.357c0.907-0.491,1.821-1.009,2.597-1.733c-0.132-0.297-0.962-0.271-0.524-1.191l2.692-0.067
			c0.285-0.313,0.16-0.79,0.196-1.193c0.038-0.399,0.232-0.72,1.136-0.803c-0.328-0.063-0.813-0.167-0.465-0.608
			c1.75-1.062,3.446-2.279,4.857-3.813c0.726-0.744,1.439-1.509,2.137-2.287l1.939-2.479c1.351-1.604,2.467-3.387,3.859-4.966
			c0.696-0.794,1.309-1.647,2.051-2.42c0.709-0.796,1.545-1.521,2.343-2.283c-1.058,0.709-0.753-0.002-0.368-0.777
			c-0.39,0.426-0.668-0.396-1.087-0.507l2.655-2.531c-0.716-1.065,1.451-3.476,0.583-4.256l-0.25,1.089
			c-0.315-0.94-1.196-0.764-2.165-0.5c-0.971,0.268-2.029,0.619-2.755,0.154c0.388,1.036-0.633,1.671-1.558,2.439
			c-0.947,0.767-1.81,1.651-1.579,3.252c-0.584,0.281-0.221-0.685-0.712-0.644c0.296,0.909,0.015,1.649-0.998,2.662l-0.066-0.237
			c-0.456,0.878-1.003,1.525-1.493,2.134c-0.499,0.601-0.991,1.125-1.505,1.649c-1.032,1.041-2.299,1.95-3.856,3.461l0.83,0.328
			c-0.694,0.644-1.061,0.567-1.509,0.744c0.082,0.833,0.557,0.374,1.057-0.087c0.497-0.457,0.956-0.977,1.162-0.11
			c-1.019-0.073-2.227,1.062-3.367,2.204c-0.289,0.281-0.576,0.56-0.858,0.813c-0.298,0.236-0.6,0.438-0.888,0.599
			c-0.578,0.317-1.119,0.445-1.592,0.21c-1.08,0.94,0.951,0.469-0.137,1.415l-0.624-0.156l0.157,0.773
			c-0.787,0.541-1.603,0.264-1.894-0.061c0.213-0.095,0.436-0.487,0.605-0.663c-1.341,0.229-2.579,2.222-3.033,2.313l1.277-0.561
			c-1.362,1.441-3.267,2.502-5.042,3.712c-0.918,0.556-1.855,1.07-2.718,1.662c-0.433,0.291-0.852,0.594-1.254,0.912
			c-0.411,0.298-0.815,0.585-1.191,0.907l0.433,0.245c-1.177,0.941-1.763,1.087-2.388,1.195c-0.316,0.05-0.635,0.112-1.065,0.226
			c-0.433,0.103-0.963,0.284-1.686,0.639l0.077-0.128c-0.463,0.593-1.21,1.082-2.052,1.342c0.308-0.363-0.122-0.448-0.517-0.554
			c-0.4-0.111-0.773-0.273-0.348-0.657c-2.783,1.605-1.292,1.013-2.942,3.026l-0.628-0.515c-0.549,0.791-0.543,1.087-2.111,1.579
			c1.188-0.818-1.209-0.798,0.086-1.824c-1.782-0.411-2.894,0.248-3.864,0.648c-0.962,0.397-1.741,0.69-2.606-0.28
			c-1.343,2.019,2.997,0.678,2.188,1.173c0.816,0.512-1.104,1.52-2.207,1.464c-0.548,0.037-1.066-0.475-1.768-1.006
			c-0.71-0.554-1.591-1.093-2.921-1.021c0.266-0.003,0.278-0.144,0.542-0.145c-0.505-0.218-0.986-0.039-1.5,0.105
			c-0.513,0.15-1.064,0.254-1.671-0.16c-0.708,1.1-1.583-0.104-1.835,1.314l2.49-0.266c-1.385,0.319-2.817,2.027-5.127,0.999
			c0.207-0.271,0.93-0.596,1.415-0.77c-0.648-0.473-1.328,0.177-1.995-0.309c0.319-1.409,3.026-0.047,4.549-1.146
			c-0.687-0.605-2.844,0.94-2.024-0.572c-0.58,0.94-1.241,0.826-1.975,0.648c-0.74-0.16-1.539-0.438-2.527,0.183l0.222-0.832
			c-0.295,0.097-0.935,0.421-1.454,0.333l1.086-0.979c-1.575,0.785-2.602-1.258-4.029-0.978c2.833,0.483,0.448,1.126,1.556,1.961
			c-1.892,0.244-2.316-0.407-2.727-1.184c-0.417-0.789-0.858-1.58-2.804-1.926c0.534,0.053,1.823,1.011,0.909,1.196
			c-0.699-0.36-1.573-0.973-1.892-1.524c-2.571-0.562,0.139,0.958-1.088,1.146c-0.563-1.262-1.364-0.014-2.606-0.08l0.276-0.823
			c-2.663-1.577-1.388,1.415-3.744-0.231l1.533-0.683l-1.446-0.243l0.651-0.803c-1.69,0.053-2.074-0.332-3.318-1.23
			c0.052,0.716-0.854,1.326-2.093,0.713c-0.591-0.894,0.832-0.481-0.927-1.283c0.635-0.251,1.367-0.661,1.74,0.44
			c0.204-0.212,0.621-0.29,0.821-0.501c-0.605-0.972-2.115-1.249-2.702-1.611c0.211,0.16,0.459,0.36,0.541,0.551
			c0,0-0.743-0.087-1.485-0.173c-0.375-0.045-0.751-0.092-1.033-0.125c-0.285-0.031-0.467-0.071-0.467-0.071
			c-0.202-0.518,0.229-0.548,0.646-0.583c-0.517-0.223-1.051-0.097-1.788-0.489c0.557-0.477,0.907-1.114,2.037-0.772l-2.595-0.765
			c0.024-0.358-0.611-1.475-0.189-1.49c-0.911-1.138-3.637-1.003-4.768-2.69c-0.161,0.037-0.396,0.006-0.769-0.19
			c-0.635-0.653-1.104-1.408-1.655-2.125c-0.562-0.706-1.257-1.315-2.321-1.776l0.08-1.751c-1.349-1.032-0.037,2.311-2.278,0.538
			c-1.608-1.267,0.316-1.278,0.129-2.037c-0.564-0.159-1.365-0.367-2.049-0.828c-0.681-0.46-1.329-1.107-1.43-2.178
			C20.035,108.158,20.186,108.642,20.606,109.032z M10.441,90.788c0.302,0.334,1.081,0.916,0.699,1.367
			C10.068,92.048,10.394,91.538,10.441,90.788z M6.542,58.626c0.223,0.367,0.002,0.814-0.412,1.299
			C6.128,59.52,6.24,59.077,6.542,58.626z M73.251,1.016c-0.021,0.013-0.035,0.023-0.052,0.041
			C72.2,0.679,72.555,0.826,73.251,1.016z M75.32,1.576c0.221-0.099,0.219-0.22,0.143-0.351c-0.168,0.203-0.64,0.164-1.17,0.043
			C74.424,1.511,74.679,1.699,75.32,1.576z M71.164,140.954l-0.414-0.211C71.657,140.458,71.409,140.693,71.164,140.954z"/>
		<path d="M7.09,62.507c-0.157,0.097-0.319,0.107-0.481,0.113C6.73,62.803,6.895,62.828,7.09,62.507z"/>
		<path d="M29.76,118.094c0.01,0.02,0.027,0.031,0.04,0.05c0.059-0.018,0.106-0.046,0.148-0.079L29.76,118.094z"/>
		<path d="M46.035,12.99c-0.407,0.028-0.668-0.04-0.865-0.138C45.231,13.057,45.463,13.158,46.035,12.99z"/>
		<path d="M86.651,2.122l-1.384-0.136c0.652,0.128,0.836,0.375,1.125,0.593C86.414,2.376,86.231,2.024,86.651,2.122z"/>
		<path d="M95.707,11.054c0.215-0.023,0.367,0.146,0.581,0.122l0.121-0.387C95.662,10.494,95.023,10.571,95.707,11.054z"/>
		<path d="M87.112,5.231c-0.098,0.746,0.774,0.673,1.684,0.848c-0.053-0.016-0.103-0.028-0.153-0.053
			c0.277-0.442,0.161-0.671-0.161-0.773C88.156,5.164,87.631,5.197,87.112,5.231z"/>
		<path d="M89.006,6.126c0.277,0.061,0.559,0.137,0.811,0.262C90.046,6.035,89.515,6.194,89.006,6.126z"/>
		<path d="M78.035,1.395c0.422,0.237,0.408-0.893,0.623-0.569C79.276-0.04,75.514,1.599,78.035,1.395z"/>
		<polygon points="87.169,7.737 87.105,6.787 86.423,7.355 		"/>
		<path d="M80.423,5.469l1.367,0.515c0.007-0.152,0.205-0.207,0.44-0.23C81.364,5.559,80.436,5.201,80.423,5.469z"/>
		<path d="M82.23,5.753c0.451,0.106,0.888,0.165,1.171,0.074C83.155,5.786,82.617,5.717,82.23,5.753z"/>
		<polygon points="85.216,7.492 84.856,7.202 83.899,6.876 		"/>
		<path d="M65,4.322l-1.551,0.378c-0.134,0.321,0.304,0.477,0.875,0.309C64.682,4.766,65.257,4.603,65,4.322z"/>
		<path d="M69.726,6.715c-0.408-0.203-0.435-0.405-0.667-0.71l-0.051,1.116L69.726,6.715z"/>
		<path d="M65.313,7.038c-0.14,0.322-2.113,1.057-0.23,0.84C65.212,7.542,66.712,7.238,65.313,7.038z"/>
		<polygon points="42.717,11.069 43.069,10.891 42.3,9.232 		"/>
		<path d="M28.425,25.569c1.577-0.805-0.426-1.123,1.106-1.743c0.034-0.604-1.253,0.51-1.18-0.052
			C27.849,24.822,27.27,24.987,28.425,25.569z"/>
		<path d="M28.352,23.774c0.083-0.167,0.161-0.353,0.229-0.57C28.421,23.497,28.37,23.658,28.352,23.774z"/>
		<polygon points="132.12,100.528 132.975,99.505 132.091,100.017 		"/>
		<path d="M131.857,97.752l1.184,0.169l-0.667-1.093C132.311,97.107,132.184,97.654,131.857,97.752z"/>
		<path d="M11.787,87.159l-0.29-0.007c-0.243,0.243-0.195,0.497-0.102,1.006L11.787,87.159z"/>
		<polygon points="16.567,101.202 16.46,100.967 15.792,101.908 		"/>
		<path d="M24.732,110.55c-0.291-0.409-0.85-0.702-1.143-1.113C24.438,110.137,23.845,111.522,24.732,110.55z"/>
	</g>
</g>
</svg>
